<?xml version="1.0"?>
<svg xmlns="http://www.w3.org/2000/svg" id="Layer_1" height="512px" viewBox="0 0 512 512" width="512px" data-name="Layer 1"><g><path d="m169.224 164.254a14.748 14.748 0 0 0 -16.845 12.305 6 6 0 1 0 11.857 1.849 2.746 2.746 0 1 1 5.425.852 6 6 0 1 0 11.858 1.848 14.774 14.774 0 0 0 -12.295-16.854z" data-original="#000000" class="active-path" data-old_color="#000000" fill="#FFFFFF"/><path d="m209.216 169.477a14.748 14.748 0 0 0 -16.845 12.305 6 6 0 0 0 11.858 1.848 2.745 2.745 0 1 1 5.424.852 6 6 0 1 0 11.858 1.849 14.772 14.772 0 0 0 -12.295-16.854z" data-original="#000000" class="active-path" data-old_color="#000000" fill="#FFFFFF"/><path d="m228.685 29.872a136.464 136.464 0 0 0 -37.579 29.734 6 6 0 0 0 8.977 7.965 124.5 124.5 0 0 1 34.283-27.129 6 6 0 1 0 -5.681-10.57z" data-original="#000000" class="active-path" data-old_color="#000000" fill="#FFFFFF"/><path d="m184.241 78.13a6 6 0 0 0 -8.229 2.069c-2.153 3.6-4.16 7.34-5.97 11.119a6 6 0 1 0 10.824 5.182c1.65-3.447 3.482-6.858 5.445-10.14a6 6 0 0 0 -2.07-8.23z" data-original="#000000" class="active-path" data-old_color="#000000" fill="#FFFFFF"/><path d="m389.117 44.692a25.741 25.741 0 0 1 16.2 16.2 6 6 0 0 0 11.385 0 25.744 25.744 0 0 1 16.2-16.2 6 6 0 0 0 0-11.384 25.744 25.744 0 0 1 -16.2-16.2 6 6 0 0 0 -11.385 0 25.741 25.741 0 0 1 -16.2 16.2 6 6 0 0 0 0 11.384zm21.894-13.015a37.988 37.988 0 0 0 7.322 7.323 37.988 37.988 0 0 0 -7.322 7.323 37.993 37.993 0 0 0 -7.323-7.323 37.993 37.993 0 0 0 7.323-7.323z" data-original="#000000" class="active-path" data-old_color="#000000" fill="#FFFFFF"/><path d="m72.983 248.838a17.758 17.758 0 0 1 -14.374-6.661 6 6 0 0 0 -10.688 3.923 17.808 17.808 0 0 1 -6.663 14.379 6 6 0 0 0 3.921 10.688 17.791 17.791 0 0 1 14.373 6.661 6 6 0 0 0 10.688-3.928 17.8 17.8 0 0 1 6.66-14.373 6 6 0 0 0 -3.919-10.689zm-12.833 14.082a30.111 30.111 0 0 0 -3.989-1.849 30.2 30.2 0 0 0 1.85-3.991 30.111 30.111 0 0 0 3.989 1.849 30.142 30.142 0 0 0 -1.85 3.991z" data-original="#000000" class="active-path" data-old_color="#000000" fill="#FFFFFF"/><circle cx="443.005" cy="64" r="10" data-original="#000000" class="active-path" data-old_color="#000000" fill="#FFFFFF"/><circle cx="95.073" cy="270" r="10" data-original="#000000" class="active-path" data-old_color="#000000" fill="#FFFFFF"/><circle cx="462.001" cy="77" r="7" data-original="#000000" class="active-path" data-old_color="#000000" fill="#FFFFFF"/><circle cx="111.07" cy="246" r="7" data-original="#000000" class="active-path" data-old_color="#000000" fill="#FFFFFF"/><path d="m230.653 234.979a6 6 0 0 0 -7.024 4.76l-16.5 85.906a6 6 0 1 0 11.785 2.264l16.5-85.909a6 6 0 0 0 -4.761-7.021z" data-original="#000000" class="active-path" data-old_color="#000000" fill="#FFFFFF"/><path d="m209.539 344.883a6 6 0 0 0 -7.024 4.761l-2.365 12.309a6 6 0 1 0 11.786 2.264l2.364-12.31a6 6 0 0 0 -4.761-7.024z" data-original="#000000" class="active-path" data-old_color="#000000" fill="#FFFFFF"/><path d="m325.45 377.682 3.7 18.878a6 6 0 0 0 11.776-2.311l-3.7-18.878a6 6 0 0 0 -11.776 2.311z" data-original="#000000" class="active-path" data-old_color="#000000" fill="#FFFFFF"/><path d="m309.279 264.112a6 6 0 0 0 -4.732 7.043l14.884 75.852a6 6 0 0 0 11.775-2.311l-14.884-75.851a6 6 0 0 0 -7.043-4.733z" data-original="#000000" class="active-path" data-old_color="#000000" fill="#FFFFFF"/><path d="m391.817 86.414a136.326 136.326 0 0 0 -249.556 0c-52.374 12.865-81.182 32.4-81.182 55.147 0 19.866 21.706 37.169 62.773 50.04 21.879 6.857 47.841 11.952 76.136 15.066l-48.736 253.685.065.013a19.5 19.5 0 0 0 -.255 3.1c0 28.279 60.011 43.537 116.477 43.537s116.479-15.258 116.479-43.537a19.483 19.483 0 0 0 -.607-4.806l.147-.029-49.444-251.964c28.286-3.114 54.24-8.209 76.114-15.064 41.066-12.871 62.772-30.174 62.772-50.04 0-22.75-28.808-42.282-81.183-55.148zm-124.778-69.414c67.474 0 122.572 54.06 124.361 121.192-28.446 12.559-74.455 20-124.362 20-49.7 0-95.9-7.458-124.362-20 1.792-67.132 56.889-121.192 124.363-121.192zm104.979 446.463c0 13.169-39.747 31.537-104.479 31.537s-104.477-18.368-104.477-31.537 39.747-31.536 104.477-31.536 104.479 18.373 104.479 31.536zm-4.254-23.006c-21.664-13.449-61.764-20.53-100.225-20.53s-78.587 7.086-100.248 20.545l44.688-232.615c17.7 1.564 36.188 2.375 55.06 2.375s37.371-.811 55.08-2.377zm38.875-260.306c-37.2 11.66-86.781 18.081-139.6 18.081s-102.4-6.421-139.6-18.081c-34.039-10.668-54.36-25.094-54.36-38.589 0-11.9 17.065-28.6 63.967-41.405a136.2 136.2 0 0 0 -6.416 41.405 5.992 5.992 0 0 0 3.048 5.219 5.946 5.946 0 0 0 1.873 1.365c29.759 13.805 78.913 22.047 131.488 22.047 53.794 0 103.588-8.545 133.2-22.858a6 6 0 0 0 3.2-6.912 136.178 136.178 0 0 0 -6.4-40.266c46.9 12.8 63.968 29.5 63.968 41.405-.007 13.495-20.329 27.921-54.368 38.589z" data-original="#000000" class="active-path" data-old_color="#000000" fill="#FFFFFF"/></g> </svg>
